# xmcd
# 
# Track frame offsets:
#     150
#     15437
#     40142
#     59152
#     72427
#     86560
#     103652
#     123657
#     141257
#     157210
# 
# Disc length: 2207
# 
# Revision: 4
# Processed by: cddbd v1.5.2PL0 Copyright (c) Steve Scherf et al.
# Submitted via: fre:ac v1.0.31
# 
DISCID=92089d0a
DTITLE=Elis Regina - Folha O Melhor de Elis Regina
DYEAR=1974
DGENRE=MPB
TTITLE0=Na Batucada Da Vida   (Ary Barroso - Luiz Peixoto)
TTITLE1=Travessia   (Fernando Brant - Milton Nascimento)
TTITLE2=Conversando No Bar   (Fernando Brant - Milton Nascimento)
TTITLE3=Ponta De Areia   (Fernando Brant - Milton Nascimento)
TTITLE4=O Mestre-Sala Dos Mares   (João Bosco - Aldir Blanc)
TTITLE5=Amor até o fim   (Gilberto Gil)
TTITLE6=Dois Pra Lá, Dois Pra Cá   (João Bosco - Aldir Blanc)
TTITLE7=Maria Rosa   (Alcides Gonçalves - Lupicínio Rodrigues)
TTITLE8=Caça à Raposa   (João Bosco - Aldir Blanc)
TTITLE9=O Compositor Me Disse   (Gilberto Gil)
EXTD=Elis (1974)
EXTT0=
EXTT1=
EXTT2=
EXTT3=
EXTT4=
EXTT5=
EXTT6=
EXTT7=
EXTT8=
EXTT9=
PLAYORDER=
